#define ratbert-busy_width 252
#define ratbert-busy_height 249
static char ratbert-busy_bits[] = {
 0x00,0x00,0x00,0x00,0x00,0x00,0x00,0x00,0x00,0x00,0x00,0x00,0x00,0x00,0x00,
 0x00,0x00,0x00,0x00,0x00,0x00,0x00,0x00,0x00,0x00,0x00,0x00,0x00,0x00,0x00,
 0x00,0xf0,0x00,0x00,0x00,0x00,0x00,0x00,0x00,0x00,0x00,0x00,0x00,0x00,0x00,
 0x00,0x00,0x00,0x00,0x00,0x00,0x00,0x00,0x00,0x00,0x00,0x00,0x00,0x00,0x00,
 0x00,0x00,0x00,0xf0,0x00,0x00,0x00,0x00,0x00,0x00,0x00,0x00,0x00,0x00,0x00,
 0x00,0x00,0x00,0x00,0x00,0x00,0x00,0x00,0x00,0x00,0x00,0x00,0x00,0x00,0x00,
 0x00,0x00,0x00,0x00,0x00,0xf0,0x00,0x00,0x00,0x00,0x00,0x00,0x00,0x00,0x10,
 0x49,0x92,0x24,0x49,0x92,0x24,0x01,0x00,0x00,0x00,0x00,0x00,0x00,0x00,0x00,
 0x00,0x00,0x00,0x00,0x00,0x00,0x00,0xf0,0x00,0x00,0x6d,0xfb,0xff,0xff,0xff,
 0xff,0xff,0xff,0xff,0xff,0xff,0xff,0xff,0xff,0xff,0xff,0xff,0xff,0xff,0xfb,
 0x7f,0x6f,0xdb,0xb6,0x05,0x00,0x00,0x00,0x00,0xf0,0xf8,0xff,0xff,0xff,0xff,
 0xff,0xff,0xff,0xff,0xff,0xff,0xff,0xff,0xff,0xff,0xff,0xff,0xff,0xff,0xff,
 0xff,0xff,0xff,0xff,0xff,0xff,0xff,0xff,0xff,0xef,0x16,0xf0,0xf8,0xff,0x6f,
 0x2b,0x08,0x00,0x00,0x00,0x00,0x00,0x00,0x00,0x00,0x00,0x00,0x00,0x00,0x00,
 0x42,0x62,0xdb,0x6e,0xdb,0xff,0xff,0xff,0xff,0xff,0xff,0xff,0x3f,0xf0,0x38,
 0x00,0x00,0x00,0x00,0x00,0x00,0x00,0x00,0x00,0x00,0x00,0x00,0x00,0x00,0x00,
 0x00,0x00,0x00,0x00,0x00,0x00,0x00,0x00,0x00,0x00,0x00,0x48,0xdb,0xff,0x3f,
 0xf0,0x18,0x00,0x00,0x00,0x00,0x00,0x00,0x00,0x00,0x00,0x00,0x00,0x00,0x00,
 0x00,0x00,0x00,0x00,0x00,0x00,0x00,0x00,0x00,0x00,0x00,0x00,0x00,0x00,0x00,
 0x00,0x30,0xf0,0x38,0x00,0x00,0x00,0x00,0x00,0x00,0x00,0x00,0x00,0x00,0x00,
 0x00,0x00,0x00,0x00,0x00,0x00,0x00,0x00,0x00,0x00,0x00,0x00,0x00,0x00,0x00,
 0x00,0x00,0x00,0x30,0xf0,0x18,0x00,0x00,0x00,0x00,0x00,0x00,0x00,0x00,0x00,
 0x00,0x00,0x00,0x00,0x00,0x00,0x00,0x00,0x00,0x00,0x00,0x00,0x00,0x00,0x00,
 0x00,0x00,0x00,0x00,0x00,0x30,0xf0,0x18,0x00,0x00,0x00,0x00,0x00,0x00,0x00,
 0x00,0x00,0x00,0x00,0x00,0x00,0x00,0x00,0x00,0x00,0x00,0x00,0x00,0x00,0x00,
 0x00,0x00,0x00,0x00,0x00,0x00,0x00,0x70,0xf0,0x38,0x00,0x00,0x00,0x00,0x00,
 0x00,0x00,0x00,0x00,0x00,0x00,0x00,0x00,0x00,0x00,0x00,0x00,0x00,0x00,0x00,
 0x00,0x00,0x00,0x00,0x00,0x00,0x00,0x00,0x00,0x70,0xf0,0x18,0x00,0x00,0x00,
 0x00,0x00,0x00,0x00,0x00,0x00,0x00,0x00,0x00,0x00,0x00,0x00,0x00,0x00,0x00,
 0x00,0x00,0x00,0x00,0x00,0x00,0x00,0x00,0x00,0x00,0x00,0x20,0xf0,0x18,0x00,
 0x00,0x00,0x00,0x00,0x00,0x00,0x00,0x00,0x00,0x00,0x00,0x00,0x00,0x00,0x00,
 0x00,0x00,0x00,0x00,0x00,0x00,0x00,0x00,0x00,0x00,0x00,0x00,0x00,0x70,0xf0,
 0x18,0x00,0x00,0x00,0x00,0x00,0x00,0x00,0x00,0x00,0x00,0x00,0x00,0x00,0x00,
 0x00,0x00,0x00,0x00,0x00,0x00,0x00,0x00,0x00,0x00,0x00,0x00,0x00,0x00,0x00,
 0x60,0xf0,0x18,0x00,0x00,0x00,0x00,0x00,0x00,0x00,0x00,0x00,0x00,0x00,0x00,
 0x00,0x00,0x00,0x00,0x00,0x00,0x00,0x00,0x00,0x00,0x00,0x00,0x00,0x00,0x00,
 0x00,0x00,0x60,0xf0,0x18,0x00,0x00,0x00,0x00,0x00,0x00,0x00,0x00,0x00,0x00,
 0x00,0x00,0x00,0x00,0x00,0x00,0x00,0x00,0x00,0x00,0x00,0x00,0x00,0x00,0x00,
 0x00,0x00,0x00,0x00,0x70,0xf0,0x18,0x00,0x00,0x00,0x00,0x00,0x00,0x00,0x00,
 0x00,0x00,0x00,0x00,0x00,0x00,0x00,0x00,0x00,0x00,0x00,0x00,0x00,0x00,0x00,
 0x00,0x00,0x00,0x00,0x00,0x00,0x60,0xf0,0x18,0x00,0x00,0x00,0x00,0x00,0x00,
 0x00,0x00,0x00,0x00,0x00,0x00,0x00,0x00,0x00,0x00,0x00,0x00,0x00,0x00,0x00,
 0x00,0x00,0x00,0x00,0x00,0x00,0x00,0x00,0x60,0xf0,0x18,0x00,0x00,0x00,0x00,
 0x00,0x00,0x00,0x00,0x00,0x00,0x00,0x00,0x00,0x00,0x00,0x00,0x00,0x00,0x00,
 0x00,0x00,0x00,0x00,0x00,0x00,0x00,0x00,0x00,0x00,0x60,0xf0,0x18,0x00,0x00,
 0x00,0x00,0x00,0x00,0x00,0x00,0x00,0x00,0x00,0x00,0x00,0x00,0x00,0x00,0x00,
 0x00,0x00,0x00,0x00,0x00,0x00,0x00,0x00,0x00,0x00,0x00,0x00,0x60,0xf0,0x18,
 0x00,0x00,0x00,0x00,0x00,0x00,0x00,0x00,0x00,0x00,0x00,0x00,0x00,0x00,0x00,
 0x00,0x00,0x00,0x00,0x00,0x00,0x00,0x00,0x00,0x00,0x00,0x00,0x00,0x00,0x60,
 0xf0,0x1c,0x00,0x00,0x00,0x00,0x00,0x00,0x00,0x00,0x00,0x00,0x00,0x00,0x00,
 0x00,0x00,0x00,0x00,0x00,0x00,0x00,0x00,0x00,0x00,0x00,0x00,0x00,0x00,0x00,
 0x00,0x60,0xf0,0x18,0x00,0x00,0x00,0x00,0x00,0x00,0x00,0x00,0x00,0x00,0x00,
 0x00,0x00,0x00,0x00,0x00,0x00,0x00,0x00,0x00,0x00,0x00,0x00,0x00,0x00,0x00,
 0x00,0x00,0x00,0x60,0xf0,0x18,0x00,0x00,0x00,0x00,0x00,0x00,0x00,0x00,0x00,
 0x00,0x00,0x00,0x00,0x00,0x00,0x00,0x00,0x00,0x00,0x00,0x00,0x00,0x00,0x00,
 0x00,0x00,0x00,0x00,0x00,0x60,0xf0,0x1c,0x00,0x00,0x00,0x00,0x00,0x00,0x00,
 0x00,0x00,0x00,0x00,0x00,0x00,0x00,0x00,0x00,0x00,0x00,0x00,0x00,0x00,0x00,
 0x00,0x00,0x00,0x00,0x00,0x00,0x00,0x60,0xf0,0x18,0x00,0x00,0x00,0x00,0x00,
 0x00,0x00,0x00,0x00,0x00,0x00,0x00,0x00,0x00,0x00,0x00,0x00,0x00,0x00,0x00,
 0x00,0x00,0x00,0x00,0x00,0x00,0x00,0x00,0x00,0x60,0xf0,0x1c,0x00,0x00,0x00,
 0x00,0x00,0x00,0x00,0x00,0x00,0x00,0x00,0x00,0x00,0x00,0x00,0x00,0x00,0x00,
 0x00,0x00,0x00,0x00,0x00,0x00,0x00,0x00,0x00,0x00,0x00,0x60,0xf0,0x0c,0x00,
 0x00,0x00,0x00,0x00,0x00,0x00,0x00,0x00,0x00,0x00,0x00,0x00,0x00,0x00,0x00,
 0x00,0x00,0x00,0x00,0x00,0x00,0x00,0x00,0x00,0x00,0x00,0x00,0x00,0x60,0xf0,
 0x18,0x00,0x00,0x00,0x00,0x00,0x00,0x00,0x00,0x00,0x00,0x00,0x00,0x00,0x00,
 0x00,0x00,0x00,0x00,0x00,0x00,0x00,0x00,0x00,0x00,0x00,0x00,0x00,0x00,0x00,
 0x60,0xf0,0x1c,0x00,0x00,0x00,0x00,0x00,0x00,0x00,0x00,0x00,0x00,0x00,0x00,
 0x00,0x00,0x00,0x00,0x00,0x00,0x00,0x00,0x00,0x00,0x00,0x00,0x00,0x00,0x00,
 0x00,0x00,0xe0,0xf0,0x0c,0x00,0x00,0x00,0x00,0x00,0x00,0x00,0x00,0x00,0x00,
 0x00,0x00,0x00,0x00,0x00,0x00,0x00,0x00,0x00,0x00,0x00,0x00,0x00,0x00,0x00,
 0x00,0x00,0x00,0x00,0x60,0xf0,0x1c,0x00,0x00,0x00,0x00,0x00,0x00,0x00,0x00,
 0x00,0x00,0x00,0x00,0x00,0x00,0x00,0x00,0x00,0x00,0x00,0x00,0x00,0x00,0x00,
 0x00,0x00,0x00,0x00,0x00,0x00,0x60,0xf0,0x0c,0x00,0x00,0x00,0x00,0x00,0x00,
 0x00,0x00,0x00,0x00,0x00,0x00,0x00,0x00,0x00,0x00,0x00,0x00,0x00,0x00,0x00,
 0x00,0x00,0x00,0x00,0x00,0x00,0x00,0x00,0x60,0xf0,0x1c,0x00,0x00,0x00,0x00,
 0x00,0x00,0x00,0x00,0x00,0x00,0x00,0x00,0x00,0x00,0x00,0x00,0x00,0x00,0x00,
 0x00,0x00,0x00,0x00,0x00,0x00,0x00,0x00,0x00,0x00,0xe0,0xf0,0x1c,0x00,0x00,
 0x00,0x00,0x00,0x00,0x00,0x00,0x00,0x00,0x00,0x00,0x00,0x00,0x00,0x00,0x00,
 0x00,0x00,0x00,0x00,0x00,0x00,0x00,0x00,0x00,0x00,0x00,0x00,0x60,0xf0,0x0c,
 0x00,0x00,0x00,0x00,0x00,0x00,0x00,0x00,0x00,0x00,0x00,0x00,0x00,0x00,0x00,
 0x00,0x00,0x00,0x00,0x00,0x00,0x00,0x00,0x00,0x00,0x00,0x00,0x00,0x00,0x60,
 0xf0,0x18,0x00,0x00,0x00,0x00,0x00,0x00,0x00,0x00,0x00,0x00,0x00,0x00,0x00,
 0x00,0x00,0x00,0x00,0x00,0x00,0x00,0x00,0x00,0x00,0x00,0x00,0x00,0x00,0x00,
 0x00,0xe0,0xf0,0x1c,0x00,0x00,0x00,0x00,0x00,0x00,0x00,0x00,0x00,0x00,0x00,
 0x00,0x00,0x00,0x00,0x00,0x00,0x00,0x00,0x00,0x00,0x00,0x00,0x00,0x00,0x00,
 0x00,0x00,0x00,0xe0,0xf0,0x0c,0x00,0x00,0x00,0x00,0x00,0x00,0x00,0x00,0x00,
 0x00,0x00,0x00,0x00,0x00,0x00,0x00,0x00,0x00,0x00,0x00,0x00,0x00,0x00,0x00,
 0x00,0x00,0x00,0x00,0x00,0x60,0xf0,0x1c,0x00,0x00,0x00,0x00,0x00,0x00,0x00,
 0x00,0x00,0x00,0x00,0x00,0x00,0x00,0x00,0x00,0x00,0x00,0x00,0x00,0x00,0x00,
 0x00,0x00,0x00,0x00,0x00,0x00,0x00,0x60,0xf0,0x1c,0x00,0x00,0x00,0x00,0x00,
 0x00,0x00,0x00,0x00,0x00,0x00,0x00,0x00,0x00,0x00,0x00,0x00,0x00,0x00,0x00,
 0x00,0x00,0x00,0x00,0x00,0x00,0x00,0x00,0x00,0xe0,0xf0,0x08,0x00,0x00,0x00,
 0x00,0x00,0x00,0x00,0x00,0x00,0x00,0x00,0x00,0x00,0x00,0x00,0x00,0x00,0x00,
 0x00,0x00,0x00,0x00,0x00,0x00,0x00,0x00,0x00,0x00,0x00,0xe0,0xf0,0x1c,0x00,
 0x00,0x00,0x00,0x00,0x00,0x00,0x00,0x00,0x00,0x00,0x00,0x00,0x00,0x00,0x00,
 0x00,0x00,0x00,0x00,0x00,0x00,0x00,0x00,0x00,0x00,0x00,0x00,0x00,0x40,0xf0,
 0x1c,0x00,0x00,0x00,0x00,0x00,0x00,0x00,0x00,0x00,0x00,0x00,0x00,0x00,0x00,
 0x00,0x00,0x00,0x00,0x00,0x00,0x00,0x00,0x00,0x00,0x00,0x00,0x00,0x00,0x00,
 0xe0,0xf0,0x08,0x00,0x00,0x00,0x00,0x00,0x00,0x00,0x00,0x00,0x00,0x00,0x00,
 0x00,0x00,0x00,0x00,0x00,0x00,0x00,0x00,0x00,0x00,0x00,0x00,0x00,0x00,0x00,
 0x00,0x00,0xe0,0xf0,0x1c,0x00,0x00,0x00,0x00,0x00,0x00,0x00,0x00,0x00,0x00,
 0xfe,0x1f,0x00,0x00,0x00,0x00,0x00,0x00,0x00,0x00,0x00,0x00,0x00,0x00,0x00,
 0x00,0x00,0x00,0x00,0x40,0xf0,0x1c,0x00,0x00,0x00,0x00,0x00,0x00,0xf8,0x0f,
 0x00,0xc0,0x07,0xf8,0x00,0x00,0x80,0x17,0x00,0x00,0x00,0x00,0x00,0x00,0x00,
 0x00,0x00,0x00,0x00,0x00,0x00,0xe0,0xf0,0x0c,0x00,0x00,0x00,0x00,0x00,0x00,
 0x4e,0x78,0x00,0x70,0x00,0x80,0x03,0x00,0xfc,0xfa,0x01,0x00,0x00,0x00,0x00,
 0x00,0x00,0x00,0x00,0x00,0x00,0x00,0x00,0xe0,0xf0,0x0c,0x00,0x00,0x00,0x00,
 0x3e,0x80,0x03,0xc0,0x00,0x1e,0x00,0x00,0x0e,0xc0,0x07,0x00,0x0f,0x00,0x00,
 0x00,0x00,0x00,0x00,0x00,0x00,0x00,0x00,0x00,0x00,0xc0,0xf0,0x1c,0x00,0x00,
 0x00,0xc0,0xe1,0xc1,0x00,0x00,0x03,0x07,0x00,0x00,0x18,0x70,0x00,0x00,0x38,
 0x00,0x00,0x00,0x00,0x00,0x00,0x00,0x00,0x00,0x00,0x00,0x00,0xc0,0xf0,0x0c,
 0x00,0x00,0x00,0x70,0x00,0x63,0x00,0x00,0xc6,0x01,0x00,0x00,0x30,0x1c,0x00,
 0x00,0x60,0x00,0x00,0x00,0x00,0x00,0x00,0x00,0x00,0x00,0x00,0x00,0x00,0xc0,
 0xf0,0x0c,0x00,0x00,0x00,0x1c,0x00,0x3e,0x00,0x00,0x7c,0x00,0x00,0x00,0x20,
 0x07,0x00,0x00,0xc0,0x00,0x00,0x00,0x00,0x00,0x00,0x00,0x00,0x00,0x00,0x00,
 0x00,0xe0,0xf0,0x0c,0x00,0x00,0x00,0x06,0x00,0x18,0x00,0x00,0x38,0x00,0x00,
 0x00,0xe0,0x01,0x00,0x00,0x80,0x01,0x00,0x00,0x00,0x00,0x00,0x00,0x00,0x00,
 0x00,0x00,0x00,0xc0,0xf0,0x1c,0x00,0x00,0x00,0x03,0x00,0x00,0x00,0x00,0x00,
 0x00,0x00,0x00,0xc0,0x00,0x00,0x00,0x00,0x03,0x10,0xb0,0x6d,0xdb,0xff,0xff,
 0xff,0x1f,0x00,0x00,0x00,0xc0,0xf0,0xfc,0xff,0xff,0xff,0x01,0x00,0x00,0x00,
 0x00,0x00,0x00,0x00,0x00,0x00,0x00,0x00,0x00,0x00,0x86,0xff,0xff,0xff,0xff,
 0x05,0x00,0x80,0x1f,0x00,0x00,0x00,0xc0,0xf0,0x1c,0x44,0x24,0xd1,0x00,0x00,
 0x00,0x00,0x00,0x00,0x00,0x00,0x00,0x00,0x00,0x00,0x00,0x00,0xf4,0x01,0x3c,
 0x00,0x80,0x00,0x00,0x00,0x11,0x00,0x00,0x00,0xc0,0xf0,0x0c,0x00,0x00,0xc0,
 0x00,0x00,0x00,0x00,0x00,0x00,0x00,0x00,0x00,0x00,0x00,0x00,0x00,0x00,0x3c,
 0x00,0xe0,0x00,0x80,0x00,0x00,0x00,0x11,0x00,0x00,0x00,0xc0,0xf0,0x0c,0x00,
 0x00,0x40,0x00,0x00,0x00,0x00,0x00,0x00,0x00,0x00,0x00,0x00,0x00,0x00,0x00,
 0x00,0x08,0x00,0x80,0x03,0x80,0x01,0x00,0x00,0x19,0x00,0x00,0x00,0xc0,0xf0,
 0x0c,0x48,0xaa,0x75,0x00,0x00,0x00,0x00,0x00,0x00,0x00,0x00,0x00,0x00,0x00,
 0x00,0x00,0x00,0x00,0x00,0x00,0x06,0x80,0x21,0x49,0x2a,0x13,0x00,0x00,0x00,
 0xc0,0xf0,0xfc,0xff,0xff,0x7f,0x00,0x00,0x00,0x00,0x00,0x00,0x00,0x00,0x00,
 0x00,0x00,0x00,0x00,0x00,0x00,0x00,0x00,0x58,0x86,0xf8,0xff,0x3f,0x13,0x00,
 0x00,0x00,0xc0,0xf0,0x3c,0xa5,0x84,0x1c,0x00,0x00,0x00,0x00,0x00,0x00,0x00,
 0x00,0x00,0x00,0x00,0x00,0x00,0x00,0x00,0x00,0x00,0xf0,0x8f,0x19,0x00,0x20,
 0x1b,0x00,0x00,0x00,0xc0,0xf0,0x1c,0x02,0x00,0x0e,0x00,0x00,0x00,0x00,0x00,
 0x00,0x00,0x00,0x00,0x00,0x00,0x00,0x00,0x00,0x00,0x00,0x00,0x60,0x9c,0x19,
 0x42,0x28,0x13,0x00,0x00,0x00,0xc0,0xf0,0x0c,0x00,0x00,0x06,0x00,0x00,0x00,
 0x00,0x00,0x00,0x00,0x00,0x00,0x00,0x00,0x00,0x00,0x00,0x00,0x00,0x00,0xc0,
 0x88,0x18,0x21,0x64,0x13,0x00,0x00,0x00,0xe0,0xf0,0x0c,0x00,0x80,0x03,0x00,
 0x00,0x00,0x00,0x00,0x00,0x00,0x00,0x00,0x00,0x00,0x00,0x00,0x00,0x00,0x00,
 0x00,0xc0,0x8c,0x19,0x00,0x60,0x13,0x00,0x00,0x00,0xc0,0xf0,0x5c,0x42,0xca,
 0x01,0x00,0x00,0x00,0x00,0x00,0x00,0x00,0x00,0x00,0x00,0x00,0x00,0x00,0x00,
 0x00,0x00,0x00,0x80,0x89,0x11,0x00,0x20,0x1a,0x00,0x00,0x00,0xc0,0xf0,0x0c,
 0x20,0x80,0x01,0x00,0x00,0x00,0x00,0x00,0x00,0x00,0x00,0x00,0x00,0x00,0x00,
 0x00,0x00,0x00,0x00,0x00,0x80,0x99,0x18,0x21,0x64,0x12,0x00,0x00,0x00,0xc0,
 0xf0,0x1c,0x00,0xc0,0x00,0x00,0x00,0x00,0x00,0x00,0x3f,0xc0,0xe3,0x0f,0xc0,
 0x8f,0x1f,0x00,0x00,0x00,0x00,0x02,0x00,0x8d,0x11,0x42,0x62,0x12,0x00,0x00,
 0x00,0xc0,0xf0,0x0c,0x00,0x40,0x80,0x20,0x78,0x00,0x20,0x00,0x33,0x7c,0x20,
 0x18,0x60,0x88,0x01,0x78,0xf8,0x11,0xf0,0x03,0x00,0x8b,0x31,0x21,0x64,0x1b,
 0x00,0x00,0x00,0xe0,0xf0,0x2c,0x85,0x60,0x80,0x20,0xcc,0x08,0x60,0x00,0x41,
 0x20,0x20,0x10,0x40,0x90,0x00,0x4c,0x08,0x11,0x18,0x00,0x00,0x9f,0x10,0x00,
 0x60,0x13,0x00,0x00,0x00,0xc0,0xf0,0x1c,0x42,0x68,0x00,0x21,0x84,0x08,0x40,
 0x00,0x81,0x20,0x20,0x20,0x40,0x90,0x00,0x86,0x08,0x11,0x10,0x00,0x00,0x9a,
 0x19,0x00,0x60,0x12,0x00,0x00,0x00,0xc0,0xf0,0x0c,0x20,0x64,0x80,0x60,0x02,
 0x09,0x40,0x00,0x81,0x20,0x20,0x20,0x40,0x88,0x00,0x82,0x08,0x11,0x10,0x00,
 0x00,0x9a,0x10,0x04,0x64,0x12,0x00,0x00,0x00,0xc0,0xf0,0x1c,0x00,0x20,0x80,
 0x6b,0x02,0x09,0x40,0x00,0x82,0x20,0x20,0x20,0x40,0x86,0x0f,0x82,0x88,0x10,
 0x90,0x02,0x00,0x8f,0x91,0x42,0x62,0x12,0x00,0x00,0x00,0xc0,0xf0,0x1c,0x02,
 0x20,0x00,0x7f,0x02,0x09,0xc0,0x00,0x82,0x20,0x20,0x20,0x40,0x83,0x00,0x81,
 0x78,0x10,0xf0,0x00,0x00,0x1b,0x39,0x21,0x64,0x13,0x00,0x00,0x00,0xc0,0xf0,
 0x2c,0x80,0x34,0x00,0x41,0x02,0x09,0x83,0x00,0x82,0x60,0x20,0x10,0x40,0x80,
 0x00,0x81,0x38,0x10,0x10,0x00,0x00,0x9f,0x10,0x00,0x60,0x12,0x00,0x00,0x00,
 0xc0,0xf0,0x1c,0x42,0x28,0x00,0x41,0x02,0x09,0x43,0x00,0x82,0x40,0x20,0x10,
 0x40,0x80,0x00,0x81,0x08,0x10,0x10,0x00,0x00,0x1e,0x11,0x00,0x60,0x1a,0x00,
 0x00,0x00,0xc0,0xf0,0x0c,0x00,0x20,0x00,0x41,0xc2,0x10,0x47,0x00,0x62,0x40,
 0x20,0x0c,0x40,0x80,0x00,0x81,0x08,0x10,0x10,0x00,0x00,0x18,0x31,0x21,0x64,
 0x12,0x00,0x00,0x00,0xc0,0xf0,0x1c,0x00,0x30,0x00,0x41,0x7c,0xf0,0x79,0x00,
 0x3e,0xf0,0xe3,0x07,0x40,0x80,0x01,0x81,0x08,0x10,0x12,0x00,0x00,0x30,0x19,
 0x42,0x62,0x1a,0x00,0x00,0x00,0xc0,0xf0,0x1c,0x42,0x20,0x00,0x00,0x0c,0x60,
 0x10,0x00,0x0e,0x10,0x60,0x00,0x40,0x00,0x3f,0x76,0x08,0xf0,0xf3,0x1f,0x00,
 0x60,0x11,0x00,0x60,0x12,0x00,0x00,0x00,0xc0,0xf0,0x2c,0x04,0x74,0x00,0x00,
 0x00,0x00,0x00,0x00,0x00,0x00,0x00,0x00,0x00,0x00,0x00,0x3c,0x00,0x00,0x20,
 0x01,0x00,0xc0,0x19,0x00,0x60,0x1a,0x00,0x00,0x00,0xc0,0xf0,0x0c,0x42,0x48,
 0x00,0x00,0x00,0x00,0x00,0x00,0x00,0x00,0x00,0x00,0x00,0x00,0x00,0x00,0x00,
 0x00,0x00,0x00,0x00,0x80,0x11,0x42,0x68,0x12,0x00,0x00,0x00,0xc0,0xf0,0x1c,
 0x00,0x40,0x00,0x00,0x00,0x00,0x00,0x00,0x00,0x00,0x00,0x00,0x00,0x00,0x00,
 0x00,0x00,0x00,0x00,0x00,0x00,0x00,0x31,0x21,0x64,0x12,0x00,0x00,0x00,0xc0,
 0xf0,0x0c,0x00,0xc0,0x00,0x00,0x00,0x00,0x00,0x00,0x00,0x00,0x00,0x00,0x00,
 0x00,0x00,0x00,0x00,0x00,0x00,0x00,0x00,0x00,0x13,0x02,0x60,0x12,0x00,0x00,
 0x00,0xc0,0xf0,0x1c,0x40,0xc8,0x01,0x00,0x00,0x00,0x00,0x00,0x00,0x00,0x00,
 0x00,0x00,0x00,0x00,0x00,0x00,0x00,0x00,0x00,0x00,0x00,0x36,0x20,0x64,0x12,
 0x00,0x00,0x00,0xc0,0xf0,0x2c,0x05,0xe4,0x01,0x00,0x00,0x00,0x00,0x00,0x00,
 0x00,0x00,0x00,0x00,0x00,0x00,0x00,0x00,0x00,0x00,0x00,0x00,0x00,0x14,0x00,
 0x60,0x12,0x00,0x00,0x00,0xc0,0xf0,0x1c,0x40,0x30,0x00,0x00,0x00,0x00,0x00,
 0x00,0x00,0x00,0x00,0x00,0x00,0x00,0x00,0x00,0x00,0x00,0x00,0x00,0x00,0x00,
 0x1c,0x02,0x60,0x12,0x00,0x00,0x00,0xc0,0xf0,0x0c,0x00,0x18,0x00,0x00,0x00,
 0x00,0x00,0x00,0x00,0x00,0x00,0x00,0x00,0x00,0x00,0x00,0x00,0x00,0x00,0x00,
 0x00,0x00,0x38,0x21,0x64,0x12,0x00,0x00,0x00,0xc0,0xf0,0x0c,0x00,0x0c,0x00,
 0x00,0x00,0x00,0x00,0x00,0x00,0x00,0x00,0x00,0x00,0x00,0x00,0x00,0x00,0x00,
 0x00,0x00,0x00,0x00,0x18,0x02,0x62,0x12,0x00,0x00,0x00,0xc0,0xf0,0x1c,0x42,
 0x0e,0x00,0x1c,0x00,0x01,0x00,0x02,0x00,0x00,0x06,0x00,0x00,0x00,0x80,0x03,
 0x00,0x00,0x00,0x00,0x00,0x00,0x18,0x80,0x60,0x12,0x00,0x00,0x00,0xc0,0xf0,
 0x2c,0x05,0x07,0x80,0x2f,0x01,0xf9,0xe1,0x07,0x20,0x00,0x1f,0x7c,0x08,0x01,
 0xf0,0x0f,0x01,0x70,0x00,0x00,0x00,0x00,0x10,0x20,0x60,0x12,0x00,0x00,0x00,
 0xc0,0xf0,0x0c,0x40,0x03,0x00,0x01,0x03,0x09,0x60,0x04,0x20,0x80,0x31,0xec,
 0x08,0x01,0x30,0x88,0x60,0x58,0x08,0x00,0x00,0x00,0x10,0x00,0x68,0x12,0x00,
 0x00,0x00,0xc0,0xf0,0x0c,0x00,0x01,0x00,0x01,0x02,0x09,0x20,0x04,0x20,0xc0,
 0x20,0x86,0x88,0x00,0x10,0x88,0x40,0x04,0x18,0x08,0x00,0x00,0x30,0x25,0x64,
 0x12,0x00,0x00,0x00,0xc0,0xf0,0x2c,0x80,0x01,0x00,0x01,0x82,0x09,0x20,0x04,
 0x20,0x40,0x20,0x02,0x49,0x00,0x10,0x88,0x40,0x04,0x10,0x04,0x00,0x00,0x10,
 0x00,0x22,0x12,0x00,0x00,0x00,0xc0,0xf0,0x1c,0xc2,0x00,0x00,0x3f,0x84,0xf8,
 0x20,0x06,0x20,0x40,0x40,0x02,0x61,0x00,0x10,0x87,0x40,0x5c,0x30,0x06,0x00,
 0x00,0x18,0x00,0x60,0x32,0x00,0x00,0x00,0xc0,0xf0,0x0c,0xe0,0x00,0x00,0x03,
 0x84,0x08,0xc0,0x03,0x20,0x40,0x40,0x03,0xf9,0x00,0x90,0x8f,0x40,0xf0,0x61,
 0x03,0x00,0x00,0x18,0x20,0x60,0x12,0x00,0x00,0x00,0xc0,0xf0,0x1c,0xc0,0x00,
 0x00,0x02,0x84,0x08,0x60,0x04,0x20,0x40,0x20,0x01,0x91,0x00,0x10,0x88,0x40,
 0x00,0x83,0x01,0x00,0x00,0x0c,0x42,0x62,0x12,0x00,0x00,0x00,0xc0,0xf0,0x1c,
 0xc0,0x00,0x00,0x02,0x48,0x08,0x60,0x0c,0x20,0x40,0x20,0x81,0x11,0x01,0x10,
 0x90,0x40,0x00,0x82,0x01,0x00,0x00,0x26,0x21,0x64,0x32,0x00,0x00,0x00,0xc0,
 0xf0,0x2c,0xc5,0x00,0x00,0x02,0x48,0x08,0x00,0x08,0x20,0xc0,0x20,0x83,0x10,
 0x03,0x10,0x90,0x40,0x00,0x06,0x01,0x00,0x00,0x1e,0x00,0x20,0x12,0x00,0x00,
 0x00,0xc0,0xf0,0x1c,0xc2,0x00,0x00,0xea,0x50,0x18,0x20,0x10,0x20,0x80,0x30,
 0xc2,0x10,0x02,0x10,0x90,0x31,0x04,0x02,0x01,0x00,0x00,0x30,0x00,0x60,0x32,
 0x00,0x00,0x00,0xc0,0xf0,0x0c,0xc0,0x00,0x00,0x1e,0x70,0xf0,0x67,0x30,0xe0,
 0x8f,0x1f,0x7e,0x10,0x04,0xf0,0x1d,0x1f,0x84,0x03,0x01,0x00,0x00,0xe0,0x20,
 0x64,0x16,0x00,0x00,0x00,0xc0,0xf0,0x0c,0xc0,0x00,0x00,0x00,0x60,0x00,0x20,
 0x20,0x00,0x0c,0x00,0x00,0x00,0x04,0x00,0x06,0x00,0xf8,0x00,0x01,0x00,0x00,
 0x80,0x43,0x62,0x12,0x00,0x00,0x00,0xc0,0xf0,0x1c,0xc0,0x00,0x00,0x00,0x00,
 0x00,0x00,0x20,0x00,0x00,0x00,0x00,0x00,0x00,0x00,0x00,0x00,0x00,0x00,0x00,
 0x00,0x00,0x00,0x25,0x24,0x32,0x00,0x00,0x00,0xc0,0xf0,0x2c,0xa5,0x00,0x00,
 0x00,0x00,0x00,0x00,0x00,0x00,0x00,0x00,0x00,0x00,0x00,0x00,0x00,0x00,0x00,
 0x00,0x00,0x00,0x00,0x00,0x06,0x60,0x12,0x00,0x00,0x00,0xc0,0xf0,0x1c,0xc2,
 0x00,0x00,0x00,0x00,0x00,0x00,0x00,0x00,0x00,0x00,0x00,0x00,0x00,0x00,0x00,
 0x00,0x00,0x00,0x00,0x00,0x00,0x00,0x04,0x20,0x36,0x00,0x00,0x00,0xc0,0xf0,
 0x0c,0x80,0x01,0x00,0x00,0x00,0x00,0x00,0x00,0x00,0x00,0x00,0x00,0x00,0x00,
 0x00,0x00,0x00,0x00,0x00,0x00,0x00,0x00,0x00,0x2c,0x24,0x12,0x00,0x00,0x00,
 0xc0,0xf0,0x0c,0x00,0x01,0x00,0x00,0x00,0x00,0x00,0x00,0x00,0x00,0x00,0x00,
 0x00,0x00,0x00,0x00,0x00,0x00,0x00,0x00,0x00,0x00,0x00,0x58,0x62,0x12,0x00,
 0x00,0x00,0xc0,0xf0,0x5c,0x40,0x03,0x00,0x00,0x00,0x00,0x00,0x00,0x00,0x00,
 0x00,0x00,0x00,0x00,0x00,0x00,0x00,0x00,0x00,0x00,0x00,0x00,0x00,0x10,0x64,
 0x36,0x00,0x00,0x00,0xc0,0xf0,0x2c,0x84,0x02,0x00,0x00,0x00,0x00,0x00,0x00,
 0x00,0x00,0x00,0x00,0x00,0x00,0x00,0x00,0x00,0x00,0x00,0x00,0x00,0x00,0x00,
 0x30,0x60,0x12,0x00,0x00,0x00,0xc0,0xf0,0x1c,0x42,0x0e,0x00,0x00,0x00,0x00,
 0x00,0x00,0x00,0x00,0x00,0x00,0x00,0x00,0x00,0x00,0x00,0x00,0x00,0x00,0x00,
 0xc0,0x01,0x60,0x20,0x12,0x00,0x00,0x00,0xc0,0xf0,0x0c,0x00,0x0c,0x80,0x0f,
 0x7e,0xf0,0x83,0x83,0x1f,0xf8,0x01,0xf0,0x20,0x00,0x00,0x03,0x00,0x00,0x00,
 0x08,0x00,0xe0,0x01,0x60,0x64,0x32,0x00,0x00,0x00,0xdc,0xf0,0x0c,0x00,0x0c,
 0xe0,0x18,0x06,0x50,0xc0,0x87,0x33,0x0c,0x00,0x58,0xf0,0x20,0xc4,0x0c,0xc0,
 0x1b,0x3f,0x7e,0xe0,0x01,0x03,0x40,0x62,0x16,0x00,0x00,0x00,0xc3,0xf0,0x1c,
 0x40,0x0c,0x40,0x10,0x02,0x10,0x60,0x88,0x20,0x04,0x00,0x0c,0x9c,0x71,0x46,
 0x88,0x10,0x37,0x01,0x82,0x30,0x80,0x01,0xc0,0x20,0x12,0x00,0x00,0xc0,0xc9,
 0xf0,0x2c,0x25,0x0c,0x40,0x18,0x02,0x10,0x30,0x88,0x20,0x00,0x00,0x04,0x04,
 0xd1,0x4e,0xd0,0x10,0x02,0x01,0x82,0x10,0xc0,0x00,0x80,0x60,0x32,0x00,0x00,
 0x60,0xf2,0xf0,0x0c,0x00,0x06,0x40,0x1c,0x76,0x10,0x31,0x88,0x20,0x0c,0x00,
 0x02,0x04,0x99,0x49,0xd8,0x10,0x02,0x05,0x82,0x60,0x80,0x00,0x80,0x63,0x16,
 0x00,0x00,0x00,0xc0,0xf0,0x0c,0x00,0x06,0x40,0x3c,0x0e,0xf0,0x11,0x90,0x1c,
 0xf8,0x00,0x02,0x06,0x88,0xc9,0x4c,0x10,0x02,0x1f,0x66,0xe0,0x81,0x00,0x80,
 0x65,0x12,0x00,0x00,0x00,0xc0,0xf0,0x2c,0x80,0x06,0x40,0x60,0x02,0x10,0x18,
 0x88,0x1b,0x18,0x00,0x02,0x02,0x8a,0xc8,0x47,0x10,0x02,0x01,0x7c,0x00,0xc2,
 0x00,0x00,0x63,0x16,0x00,0x00,0x8c,0xc0,0xf0,0x1c,0x42,0x06,0x40,0x40,0x02,
 0x10,0x10,0x88,0x70,0x08,0x00,0x02,0x02,0x0d,0x88,0x40,0x10,0x06,0x01,0x4e,
 0x00,0x84,0x00,0x00,0x21,0x32,0x00,0x00,0x07,0xc0,0xf0,0x0c,0x20,0x02,0x80,
 0x80,0x02,0x10,0x10,0x88,0x60,0x08,0x00,0x02,0x02,0x05,0x48,0xc0,0x10,0x04,
 0x01,0x82,0x01,0x04,0x00,0x00,0x63,0x16,0x00,0x80,0x01,0xc0,0xf0,0x1c,0x00,
 0x06,0xc0,0xc0,0x02,0x10,0x10,0x88,0x80,0x08,0x00,0x04,0x84,0x05,0x50,0x80,
 0x10,0x04,0x01,0x02,0x01,0x04,0x00,0x00,0x6b,0x12,0x00,0xc0,0x00,0xc0,0xf0,
 0x0c,0x00,0x06,0x80,0x60,0xfc,0x13,0x30,0x84,0x00,0x89,0x03,0xfc,0xfc,0x04,
 0xd0,0x80,0x18,0x04,0x01,0x02,0x02,0x06,0x00,0x00,0x27,0x36,0x00,0xc0,0x00,
 0xc0,0xf0,0x2c,0xa4,0x06,0x80,0x1f,0x9c,0x10,0xe0,0x87,0x00,0xf9,0x01,0x10,
 0x30,0x00,0x10,0x00,0x0d,0x04,0xfe,0x00,0xe2,0x03,0x00,0x00,0x63,0x16,0x00,
 0xc0,0x00,0xc0,0xf0,0x5c,0x02,0x06,0x00,0x00,0x00,0x00,0x00,0x00,0x00,0x00,
 0x00,0x00,0x00,0x00,0x00,0x00,0x02,0x00,0x00,0x00,0x80,0x80,0x00,0x00,0x61,
 0x12,0x00,0x00,0x1f,0xc0,0xf0,0x0c,0x80,0x0c,0x00,0x00,0x00,0x00,0x00,0x00,
 0x00,0x00,0x00,0x00,0x00,0x00,0x00,0x00,0x00,0x00,0x00,0x00,0x00,0x00,0x00,
 0x00,0x67,0x16,0x00,0x00,0x0c,0xc0,0xf0,0x0c,0x00,0x0c,0x00,0x00,0x00,0x00,
 0x00,0x00,0x00,0x00,0x00,0x00,0x00,0x00,0x00,0x00,0x00,0x00,0x00,0x00,0x00,
 0x00,0x00,0x00,0x63,0x32,0x00,0x00,0x0c,0xc0,0xf0,0x1c,0x00,0x08,0x00,0x00,
 0x00,0x00,0x00,0x00,0x00,0x00,0x00,0x00,0x00,0x00,0x00,0x00,0x00,0x00,0x00,
 0x00,0x00,0x00,0x00,0x00,0x61,0x36,0x00,0x00,0x0c,0xc0,0xf0,0x2c,0xa4,0x18,
 0x00,0x00,0x00,0x00,0x00,0x00,0x00,0x00,0x00,0x00,0x00,0x00,0x00,0x00,0x00,
 0x00,0x00,0x00,0x00,0x00,0x00,0x80,0x61,0x12,0x00,0x00,0xfc,0xc1,0xf0,0x1c,
 0x40,0x38,0x00,0x00,0x00,0x00,0x00,0x00,0x00,0x00,0x00,0x00,0x00,0x00,0x00,
 0x00,0x00,0x00,0x00,0x00,0x00,0x00,0x00,0x80,0x60,0x36,0x00,0x00,0x44,0xc0,
 0xf0,0x2c,0x04,0x60,0x00,0x00,0x00,0x00,0x00,0x00,0x00,0x00,0x00,0x00,0x00,
 0x00,0x00,0x00,0x00,0x00,0x00,0x00,0x00,0x00,0x00,0xc0,0x64,0x32,0x00,0x00,
 0x04,0xc0,0xf0,0x18,0x00,0xc0,0x01,0x00,0x00,0x00,0x01,0x00,0x00,0x00,0x00,
 0x00,0x00,0x00,0x00,0x00,0x00,0x00,0x00,0x00,0x00,0x00,0x00,0x60,0x62,0x16,
 0x00,0x00,0x06,0xc0,0xf0,0x1c,0x00,0x00,0x07,0x00,0x00,0xc0,0x03,0x00,0x00,
 0x00,0x00,0x00,0x00,0x00,0x00,0x00,0x00,0x00,0x00,0x00,0x00,0x00,0x00,0x30,
 0x60,0x32,0x00,0x00,0x86,0xfe,0xf0,0x2c,0x84,0x14,0x1e,0x00,0x00,0xe0,0x03,
 0x00,0x00,0x00,0x00,0x00,0x00,0x00,0x00,0x00,0x00,0x00,0x00,0x00,0x00,0x00,
 0x00,0x18,0x60,0x26,0x00,0x00,0xfe,0xf7,0xf0,0x18,0x42,0x08,0xf9,0x00,0x00,
 0x3c,0x06,0x00,0x00,0x00,0x00,0x00,0x00,0x00,0x20,0x00,0x00,0x00,0x20,0x00,
 0x00,0x00,0x00,0x0c,0x60,0x34,0x00,0x00,0x03,0xca,0xf0,0x1c,0x00,0x00,0xc0,
 0xdf,0xf4,0x0f,0x0c,0x00,0x00,0x40,0x00,0x00,0x00,0x00,0x70,0x00,0x00,0x00,
 0x70,0x00,0x00,0x00,0x00,0x27,0x64,0x26,0x00,0x00,0xfe,0xff,0xf0,0x0c,0x00,
 0x00,0x00,0xf4,0xbf,0x00,0x38,0x00,0x00,0xf0,0x00,0x00,0x00,0x00,0xdc,0x00,
 0x00,0x00,0xd0,0x00,0x00,0x00,0xc0,0x13,0x62,0x34,0x00,0x00,0x16,0xc0,0xf0,
 0x18,0x08,0x00,0x20,0x80,0x80,0x10,0xf2,0x00,0x00,0xbc,0x01,0x00,0x00,0x00,
 0xce,0x01,0x00,0x00,0x98,0x01,0x00,0x00,0xe0,0x00,0x60,0x26,0x00,0x00,0x02,
 0xc0,0xf0,0x1c,0x84,0x90,0x00,0x4a,0x08,0x21,0xa0,0x0f,0xd0,0x4f,0x07,0x00,
 0x00,0x80,0x87,0x03,0x00,0x00,0x0c,0x07,0x00,0x00,0x3c,0x00,0x60,0x34,0x00,
 0x00,0x03,0xc0,0xf0,0x4c,0x02,0x08,0x20,0x00,0x00,0x10,0x02,0xfa,0xff,0x01,
 0x1c,0x00,0x00,0xc0,0x01,0x0e,0x00,0x00,0x06,0x1c,0x00,0xc0,0x1f,0x40,0x42,
 0x26,0x00,0x00,0x03,0xc0,0xf0,0x18,0x00,0x00,0x00,0x00,0x00,0x00,0x00,0x80,
 0x02,0x00,0xf0,0x03,0x00,0x78,0x00,0x38,0x00,0x00,0x03,0xf2,0x00,0xfe,0x31,
 0x21,0x64,0x26,0x00,0x00,0x01,0xc0,0xf0,0x1c,0x80,0x00,0x02,0x00,0x08,0x01,
 0x00,0x04,0x00,0x00,0xc0,0x01,0xf8,0x1f,0x84,0xf0,0x01,0xe8,0x29,0xe1,0xff,
 0x1f,0x11,0x02,0x60,0x34,0x00,0x80,0x01,0xc1,0xf0,0x0c,0x08,0x08,0x20,0x84,
 0x80,0x10,0x52,0x48,0x21,0x21,0xe4,0x00,0x70,0x43,0x08,0x48,0xff,0xff,0x00,
 0x10,0x5a,0x90,0x11,0x00,0x60,0x26,0x00,0x80,0x80,0xc1,0xf0,0x38,0x84,0x80,
 0x00,0x42,0x08,0x00,0x00,0x80,0x10,0x12,0x62,0x00,0x20,0x00,0x80,0x00,0x7a,
 0x02,0x00,0x00,0x00,0x30,0x31,0x00,0x60,0x26,0x00,0xc0,0x80,0xc0,0xf0,0x1c,
 0x00,0x08,0x00,0x00,0x00,0x10,0x00,0x08,0x00,0x00,0x20,0x00,0x60,0x00,0x00,
 0x00,0x00,0x00,0x08,0x01,0x80,0x10,0x11,0x42,0x4a,0x24,0x00,0x60,0xc0,0x80,
 0xf1,0x18,0x00,0x00,0x00,0x00,0x00,0x00,0x00,0x00,0x00,0x00,0x20,0x00,0x60,
 0x40,0x08,0x20,0x21,0x80,0x00,0x10,0x42,0x98,0x31,0x21,0x64,0x36,0x00,0x20,
 0x60,0xc0,0xf0,0x18,0x84,0x00,0x52,0x08,0x08,0x01,0x85,0x84,0x10,0x00,0x30,
 0x00,0x20,0x24,0x84,0x10,0x02,0x4a,0x28,0x21,0x04,0x14,0x91,0x10,0x40,0x24,
 0x00,0x30,0x20,0xc0,0xf0,0x58,0x00,0x08,0x21,0x84,0x80,0x50,0x40,0x08,0x09,
 0x25,0x24,0x00,0x60,0x42,0x08,0x09,0x20,0x00,0x00,0x10,0x02,0x30,0x31,0x00,
 0x40,0x24,0x00,0x18,0x30,0xc0,0xf1,0x38,0x84,0x80,0x00,0x40,0x08,0x00,0x04,
 0x00,0x10,0x00,0x22,0x00,0x20,0x00,0x00,0x00,0x00,0x00,0x00,0x00,0x00,0x18,
 0x11,0x00,0x64,0x36,0x00,0x08,0x18,0x80,0xf1,0x18,0x00,0x00,0x00,0x00,0x00,
 0x00,0x00,0x00,0x00,0x00,0x60,0x00,0x30,0x00,0x00,0x00,0x00,0x00,0x08,0x01,
 0x20,0x10,0x11,0x12,0x42,0x24,0x00,0x0c,0x08,0xc0,0xf0,0x18,0x00,0x00,0x00,
 0x00,0x00,0x10,0x40,0x00,0x00,0x21,0xc0,0x00,0x18,0x42,0x48,0x08,0x25,0xa4,
 0x14,0x10,0x42,0x1a,0x31,0x21,0x61,0x24,0x00,0x06,0x0c,0x80,0xf1,0x38,0x84,
 0x90,0x00,0x02,0x09,0x21,0x04,0x94,0x12,0x42,0xc2,0x03,0x2e,0x24,0x84,0x90,
 0x02,0x42,0x00,0x21,0x01,0x30,0x11,0x00,0xc0,0x24,0x00,0x72,0x06,0xc0,0xf0,
 0x18,0x0a,0x08,0x21,0x84,0x80,0x00,0x42,0x08,0x01,0x21,0x84,0xff,0x03,0x40,
 0x00,0x00,0x00,0x00,0x00,0x00,0x00,0x10,0x31,0x00,0x40,0x24,0x80,0x03,0x02,
 0x80,0xf1,0x18,0x80,0x00,0x00,0x40,0x00,0x20,0x00,0x00,0x00,0x00,0xe0,0xa0,
 0x01,0x00,0x00,0x00,0x00,0x00,0x00,0x00,0x40,0x18,0x33,0x00,0xe0,0x24,0xc0,
 0x9e,0x03,0x80,0xf1,0x18,0x00,0x00,0x00,0x00,0x00,0x00,0x00,0x00,0x00,0x00,
 0x30,0x00,0x03,0x04,0x04,0x10,0x40,0x0a,0x09,0x29,0x24,0x14,0x11,0x52,0x4a,
 0x24,0xc0,0xf1,0x01,0xc0,0xf0,0x18,0x00,0x00,0x20,0x00,0x10,0x02,0x00,0x08,
 0x08,0x01,0x34,0x00,0x52,0x42,0x48,0x09,0x21,0x84,0x90,0x10,0x42,0x18,0x33,
 0x01,0x60,0x24,0x80,0xc0,0x00,0x80,0xf1,0x38,0x84,0x10,0x02,0x4a,0x08,0x21,
 0xa1,0x84,0x12,0x42,0x18,0x00,0x26,0x04,0x80,0x10,0x12,0x40,0x00,0x00,0x00,
 0x30,0x31,0x00,0x40,0x24,0xc0,0x41,0x00,0x80,0xf1,0x58,0x00,0x08,0x21,0x84,
 0x00,0x10,0x00,0x08,0x00,0x20,0x14,0x00,0x06,0x40,0x00,0x00,0x00,0x00,0x00,
 0x00,0x00,0x10,0x31,0x00,0xc0,0x24,0xc0,0x7d,0x00,0x80,0xf1,0x18,0x84,0x00,
 0x90,0x00,0x00,0x00,0x00,0x00,0x00,0x00,0x18,0x00,0x06,0x00,0x00,0x00,0x00,
 0x00,0x00,0x10,0x42,0x18,0x33,0x20,0x65,0x64,0x00,0x7f,0x00,0x80,0xf1,0x18,
 0x00,0x00,0xf0,0x07,0x00,0x00,0x00,0x00,0x00,0x00,0x18,0x00,0x02,0x00,0x04,
 0x00,0x02,0x02,0x29,0x21,0x24,0x14,0x11,0x12,0x42,0x24,0x00,0x08,0x00,0x80,
 0xf1,0x58,0x00,0x00,0xf9,0x1c,0x90,0x02,0x4a,0x08,0x21,0x21,0x14,0x00,0x13,
 0x4a,0x49,0x09,0x21,0xa4,0x10,0x10,0x02,0x30,0x31,0x01,0xe0,0x64,0x00,0x08,
 0x00,0x80,0xf1,0x38,0x84,0x10,0xf2,0x59,0x09,0x20,0x85,0x80,0x10,0x42,0x68,
 0x80,0x01,0x00,0x00,0x00,0x40,0x00,0x00,0x01,0x00,0x30,0x33,0x00,0x40,0x24,
 0x00,0x08,0x00,0x80,0xf1,0x18,0x00,0x08,0xfd,0xb3,0x00,0x10,0x00,0x08,0x08,
 0x00,0xe0,0xf3,0x00,0x00,0x00,0x00,0x00,0x00,0x00,0x00,0x00,0x10,0x33,0x40,
 0x40,0x64,0x00,0x30,0x00,0x80,0xf1,0x18,0x04,0xec,0xf7,0xe7,0x00,0x00,0x00,
 0x00,0x00,0x00,0x30,0x7f,0x00,0x40,0x00,0x00,0x21,0x00,0x10,0x00,0x42,0x18,
 0x31,0x21,0x64,0x24,0x00,0xf0,0x01,0x80,0xf1,0x18,0xf0,0x3f,0xc0,0xff,0x01,
 0x01,0x80,0x00,0x00,0x42,0x18,0x40,0x21,0x05,0x94,0x10,0x02,0x0a,0x09,0x29,
 0x24,0x34,0x13,0x10,0x42,0x24,0x00,0x30,0xff,0x93,0xf1,0x98,0x7f,0x00,0x80,
 0xcf,0x10,0x10,0x4a,0x48,0x21,0x20,0x0c,0x80,0x12,0x42,0x08,0x09,0x20,0x84,
 0x00,0x00,0x00,0x10,0x33,0x00,0x60,0x64,0x00,0x18,0xe0,0xff,0xf1,0xf8,0x00,
 0x00,0x80,0xc7,0x09,0x01,0x05,0x00,0x10,0x02,0x06,0x80,0x01,0x00,0x00,0x00,
 0x02,0x00,0x00,0x00,0x00,0x30,0x31,0x00,0x60,0x64,0x00,0x0c,0x00,0x80,0xf1,
 0x18,0x00,0x80,0xff,0x87,0x00,0x00,0x00,0x00,0x00,0x00,0x06,0x80,0x01,0x00,
 0x00,0x00,0x00,0x00,0x00,0x21,0x84,0x14,0x93,0x40,0x48,0x64,0x00,0x06,0x00,
 0x80,0xf1,0x18,0x00,0xfe,0x09,0x8e,0x00,0x00,0x00,0x00,0x00,0x00,0x06,0x80,
 0x00,0x40,0x00,0x20,0x01,0x00,0x04,0x10,0x42,0x38,0x33,0x21,0x64,0x2c,0x00,
 0x03,0x00,0x80,0xf1,0x18,0xfc,0x07,0x00,0x8e,0x01,0x21,0x80,0x94,0x10,0x42,
 0x06,0x80,0x21,0x85,0x94,0x12,0x42,0x4a,0x29,0x21,0x24,0x14,0x13,0x10,0x42,
 0x64,0x00,0x01,0xc0,0x81,0xf1,0xf8,0x17,0x00,0x00,0x86,0x90,0x10,0x42,0x08,
 0x28,0x20,0x0c,0xc0,0x12,0x42,0x08,0x01,0x20,0x00,0x00,0x00,0x00,0x30,0x32,
 0x00,0x40,0x64,0x80,0x00,0x60,0x80,0xf1,0x78,0x00,0x00,0x00,0xcc,0x09,0x00,
 0x00,0x00,0x02,0x02,0x1a,0x60,0x00,0x00,0x00,0x00,0x00,0x00,0x00,0x00,0x00,
 0x30,0x33,0x00,0x60,0x2c,0xc0,0x00,0x30,0x80,0xf1,0x18,0x00,0x00,0x00,0x8e,
 0x00,0x00,0x00,0x00,0x00,0x00,0xf0,0x30,0x00,0x00,0x00,0x00,0x00,0x40,0x00,
 0x21,0x04,0x10,0x31,0x12,0xc2,0x64,0x60,0x00,0x18,0x80,0xf1,0x18,0x00,0x00,
 0x00,0x8c,0x00,0x00,0x00,0x00,0x00,0x20,0xe0,0x1f,0x40,0x40,0x08,0x20,0x24,
 0x84,0x10,0x10,0x42,0x3a,0x33,0x21,0x64,0x64,0x30,0x00,0x1c,0x80,0xf1,0x18,
 0x00,0x00,0x00,0x8c,0xed,0xff,0xbf,0x84,0x10,0x42,0x18,0x18,0x21,0xa4,0x84,
 0x10,0x42,0x0a,0x08,0x21,0x01,0x30,0x32,0x00,0x40,0x4c,0x10,0x00,0x0e,0x80,
 0xf1,0x18,0x00,0x00,0x00,0x8c,0xff,0xff,0x7f,0x08,0x21,0x00,0x0c,0x90,0x10,
 0x02,0x00,0x00,0x00,0x00,0x00,0x00,0x00,0x10,0x33,0x00,0xc0,0x44,0x18,0x00,
 0x0b,0x80,0xf1,0x18,0x00,0x00,0x00,0x8c,0x00,0x00,0xe0,0x00,0x00,0x02,0x0c,
 0x10,0x00,0x00,0x00,0x00,0x00,0x00,0x00,0x00,0x40,0x30,0x33,0x00,0x44,0x64,
 0x0c,0x80,0x09,0x80,0xf1,0x38,0x00,0x00,0x00,0x8c,0x01,0x00,0xc0,0x00,0x00,
 0x00,0x04,0x10,0x00,0x00,0x80,0x10,0x42,0x40,0x09,0x21,0x00,0x34,0x22,0x52,
 0xc2,0x4c,0x06,0x80,0x0c,0x80,0xf1,0x18,0x00,0x00,0x00,0x8c,0x00,0x00,0x80,
 0x01,0x21,0xa0,0x0c,0x18,0x02,0x7f,0x08,0x01,0x21,0x84,0x10,0x10,0x42,0x18,
 0x33,0x21,0x64,0x44,0x02,0xc0,0x08,0x80,0xf1,0x18,0x00,0x00,0x00,0x9c,0x01,
 0x00,0x00,0x17,0x10,0x42,0x08,0x7c,0xe1,0xcb,0x85,0x10,0x02,0x02,0x00,0x01,
 0x21,0x30,0x32,0x00,0x40,0x44,0x03,0x60,0x08,0x80,0xf1,0x30,0x00,0x00,0x00,
 0x88,0x01,0x00,0x00,0x0a,0x01,0x04,0x34,0x67,0x70,0x80,0x03,0x00,0x00,0x00,
 0x00,0x00,0x00,0x30,0x22,0x00,0x40,0xcc,0x01,0x20,0x08,0x80,0xf1,0x38,0x00,
 0x00,0x00,0x98,0x01,0x00,0x00,0x06,0x00,0x00,0xe0,0xc1,0x18,0x10,0x06,0x00,
 0x00,0x00,0x10,0x10,0x00,0x18,0x33,0x00,0xc4,0xcc,0x00,0x30,0x0c,0x80,0xf1,
 0x18,0x00,0x00,0x00,0x98,0x01,0x00,0x00,0x0c,0x00,0x00,0x80,0x80,0x08,0x7e,
 0x8c,0x10,0x42,0x48,0x08,0x21,0x24,0x34,0x32,0x52,0xc2,0xc4,0x00,0x18,0x08,
 0x80,0xf1,0x30,0x00,0x00,0x00,0x18,0x01,0x00,0x00,0x08,0x21,0x81,0xc4,0xc0,
 0x8e,0xc3,0x18,0x09,0x20,0x04,0x10,0x10,0x42,0x10,0x22,0x01,0x60,0x4c,0x00,
 0x08,0x08,0x80,0xf1,0x38,0x00,0x00,0x00,0x18,0x01,0x00,0x00,0x18,0x10,0x42,
 0xc0,0x40,0xc9,0x81,0x19,0x10,0x02,0xf0,0x5f,0x00,0x00,0x30,0x23,0x00,0xc0,
 0x4c,0x00,0x0c,0x08,0x80,0xf1,0x18,0x00,0x00,0x00,0x98,0x01,0x00,0x00,0x30,
 0x01,0x00,0x80,0x69,0x78,0x00,0x31,0x00,0x00,0x7c,0xff,0x03,0x00,0x30,0x22,
 0x10,0x40,0x44,0x00,0x06,0x18,0x80,0xf1,0x10,0x00,0x00,0x00,0x18,0x01,0x00,
 0x00,0x60,0x00,0x00,0x00,0x1f,0x00,0x00,0x33,0x00,0x20,0x07,0xe0,0x5f,0x42,
 0x38,0x22,0x21,0xc4,0x4c,0x00,0x02,0x18,0x80,0xf1,0x38,0x00,0x00,0x00,0x18,
 0x01,0x00,0x00,0xc0,0x10,0x40,0x48,0x00,0x21,0x80,0xe2,0x10,0x42,0x03,0x00,
 0x7f,0x25,0x24,0x62,0x12,0xc2,0x4c,0x00,0x03,0x18,0x80,0xf1,0x18,0x00,0x00,
 0x00,0x38,0x01,0x00,0x00,0xc0,0x21,0x01,0x84,0x90,0x10,0x4a,0x62,0x09,0xa0,
 0x01,0x00,0xfc,0x01,0x30,0x22,0x00,0xc0,0x4c,0x00,0x01,0x10,0x80,0xf1,0x30,
 0x00,0x00,0x00,0x18,0x01,0x00,0x00,0x80,0x13,0x50,0x00,0x78,0x00,0x00,0x66,
 0x00,0x82,0x00,0x00,0xf8,0x03,0x30,0x22,0x00,0xc0,0xc4,0x80,0x01,0x30,0x80,
 0xf1,0x18,0x00,0x00,0x00,0x30,0x03,0x00,0x00,0x00,0x01,0x00,0x00,0x58,0xa0,
 0x00,0xc6,0x00,0xc0,0x00,0x00,0xb0,0x87,0x34,0x62,0x02,0x42,0xcc,0xc1,0x00,
 0x60,0xf0,0xf1,0x38,0x00,0x00,0x00,0x38,0x01,0x00,0x00,0x00,0x06,0x00,0x00,
 0xc8,0xfe,0x43,0x46,0x00,0x61,0x00,0x00,0xa0,0x4f,0x28,0x22,0x21,0xe4,0x48,
 0x47,0x00,0xe0,0xff,0xf1,0x30,0x00,0x00,0x00,0x30,0x03,0x00,0x00,0x00,0x06,
 0x02,0x42,0x98,0x07,0x86,0xc4,0x12,0x62,0x00,0x00,0x60,0x2c,0x30,0x62,0x42,
 0xc0,0x4c,0x7c,0x00,0x70,0x81,0xf1,0x38,0x00,0x00,0x00,0x30,0x03,0x00,0x00,
 0x00,0x2c,0x24,0x84,0xf8,0x01,0x43,0xcc,0x01,0x20,0x00,0x00,0xe0,0x1b,0x30,
 0x22,0x01,0x80,0x48,0x30,0x00,0x0c,0x80,0xf1,0x30,0x00,0x00,0x00,0x30,0x02,
 0x00,0x00,0x00,0x18,0x00,0x00,0x18,0x80,0x05,0x8c,0x00,0x30,0x00,0x00,0xc0,
 0x1e,0x30,0x62,0x00,0xc4,0xcc,0x10,0x00,0x04,0x80,0xf1,0x30,0x00,0x00,0x00,
 0x30,0x02,0x00,0x00,0x00,0x18,0x00,0xf8,0x1c,0xe0,0x00,0x8c,0x00,0x30,0x00,
 0x00,0xc0,0x30,0x34,0x62,0x40,0xc2,0xcc,0x11,0x00,0x06,0xc0,0xf1,0x30,0x00,
 0x00,0x00,0x30,0x02,0x00,0x00,0x00,0x30,0x00,0xdc,0x7f,0x60,0x4a,0x8a,0x29,
 0x35,0x00,0x00,0xc0,0xf7,0x33,0x26,0x21,0xc4,0xc8,0x1f,0x00,0x3c,0xf6,0xf1,
 0x38,0x00,0x00,0x00,0x30,0x02,0x00,0x00,0x00,0xe0,0xff,0x07,0xc7,0xe0,0xff,
 0xcf,0xff,0x1f,0x00,0x00,0xc0,0xf4,0x1f,0x62,0x00,0xc0,0x4c,0x00,0x00,0xf8,
 0xcf,0xf0,0x30,0x00,0x00,0x00,0x60,0x06,0x00,0x00,0x00,0xc0,0xee,0x07,0x83,
 0xc0,0x00,0x88,0x00,0x18,0x00,0x00,0xc0,0x2f,0x00,0x62,0x00,0xc0,0xc8,0x00,
 0x00,0x00,0x80,0xf1,0x30,0x00,0x00,0x00,0x70,0x06,0x00,0x00,0x00,0xc0,0x00,
 0xe2,0x81,0x80,0x00,0x88,0x00,0x18,0x00,0x00,0xc0,0x20,0x00,0x26,0x21,0xc0,
 0x4c,0x00,0x00,0x00,0x80,0xf0,0x38,0x00,0x00,0x00,0x60,0x02,0x00,0x00,0x80,
 0x81,0x01,0xe6,0xc1,0x80,0x01,0xc8,0x00,0x18,0x00,0x00,0xc0,0x2f,0x00,0xe6,
 0x02,0xca,0xcc,0x00,0x00,0x00,0xc0,0xf1,0x30,0x00,0x00,0x00,0x60,0x04,0x00,
 0x00,0x80,0x00,0x01,0x3e,0xc1,0x80,0xfd,0xcf,0xff,0x1f,0x00,0x00,0xc0,0x60,
 0xd0,0xc3,0x20,0xc4,0x48,0x00,0x00,0x00,0x80,0xf0,0x30,0x00,0x00,0x00,0x60,
 0x06,0x00,0x00,0xf0,0x01,0xfe,0x3f,0xc3,0x00,0xaf,0xce,0x6b,0x1d,0x00,0x00,
 0xc0,0xe7,0xff,0x87,0x03,0xc0,0xcc,0x00,0x00,0x00,0x80,0xf1,0x30,0x00,0x00,
 0x00,0x60,0x04,0x00,0x00,0x00,0x00,0x06,0x08,0x6e,0x00,0x03,0x48,0x00,0x10,
 0x00,0x00,0xc0,0x31,0x00,0x1c,0x06,0xc0,0x48,0x00,0x00,0x00,0xc0,0xf0,0x30,
 0x00,0x00,0x00,0x60,0x04,0x00,0x20,0x00,0x00,0x0c,0x0c,0x18,0x00,0x02,0x4c,
 0x00,0x08,0x00,0x00,0xc0,0x2e,0x00,0x30,0x2c,0x84,0xcc,0x00,0x00,0x00,0xc0,
 0xf0,0x30,0x00,0x00,0x00,0x60,0x04,0x00,0xfc,0x7f,0x00,0x08,0x06,0x00,0x00,
 0x02,0x44,0x00,0x18,0x00,0x00,0xc0,0x37,0x00,0x60,0x18,0xc2,0x4c,0x00,0x00,
 0x00,0x80,0xf1,0x30,0x00,0x00,0x00,0xe0,0x04,0x00,0x04,0xcc,0xff,0xff,0x03,
 0x00,0x00,0x06,0x66,0x00,0x10,0x00,0x00,0x60,0x30,0x00,0xc0,0x70,0xa0,0x88,
 0x00,0x00,0x00,0xc0,0xf1,0x30,0x00,0x00,0x00,0xe0,0x0c,0x00,0x66,0x04,0x07,
 0xa8,0x01,0x00,0x00,0x06,0x66,0x00,0x18,0x00,0x00,0xe0,0x37,0x00,0x80,0xe1,
 0xc0,0xc8,0x00,0x00,0x00,0x80,0xf0,0x30,0x00,0x00,0x00,0xc0,0x0c,0x00,0x46,
 0x34,0x00,0x80,0x00,0xc0,0x00,0x06,0x62,0x00,0x10,0x00,0x00,0x60,0x33,0x00,
 0x00,0x83,0xc1,0xcc,0x00,0x00,0x00,0x80,0xf1,0x30,0x00,0x00,0x00,0xc0,0xe8,
 0xff,0x47,0x1c,0x50,0xff,0x00,0x30,0x00,0x04,0x22,0x00,0x10,0x00,0x00,0xe0,
 0x19,0x00,0x00,0x06,0x87,0x88,0x00,0x00,0x00,0x80,0xf1,0x30,0x00,0x00,0x00,
 0xc0,0x38,0x00,0xc6,0xc8,0xfc,0x77,0x00,0x10,0x00,0x04,0x62,0x00,0x20,0x00,
 0x00,0xf0,0x1a,0x00,0x00,0x1c,0xce,0xcc,0x00,0x00,0x00,0x80,0xf1,0x30,0x00,
 0x00,0x00,0xc0,0x0c,0x00,0x84,0x7c,0x09,0x20,0x00,0x18,0x00,0x04,0x22,0x00,
 0x60,0x00,0x00,0xb0,0x1b,0x00,0x00,0x30,0x9c,0xc8,0x00,0x00,0x00,0x80,0xf1,
 0x30,0x00,0x00,0x00,0xc0,0x08,0x00,0x08,0x17,0x0d,0x30,0x00,0x0c,0x00,0x04,
 0x62,0x00,0xc0,0x00,0x00,0xf0,0x0d,0x00,0x00,0x60,0xf0,0x8c,0x00,0x00,0x00,
 0x80,0xf1,0x30,0x00,0x00,0x00,0xc0,0x08,0x00,0x18,0x00,0x0f,0x18,0x00,0x06,
 0x00,0x0c,0x62,0x00,0x00,0x03,0x00,0x78,0x0c,0x00,0x00,0xc0,0xe0,0xc8,0x00,
 0x00,0x00,0x80,0xf1,0x30,0x00,0x00,0x00,0xc0,0x08,0x00,0x10,0x00,0x08,0x3c,
 0x00,0x02,0x01,0x04,0x66,0x00,0x00,0x0e,0x00,0xf8,0x05,0x00,0x00,0x80,0xc1,
 0x8c,0x00,0x00,0x00,0x80,0xf1,0x30,0x00,0x00,0x00,0xc0,0x08,0x00,0xe0,0x49,
 0x0e,0x7e,0x00,0x81,0x00,0x0c,0x64,0x00,0x00,0x38,0x00,0x5c,0x06,0x00,0x00,
 0x00,0x07,0xcc,0x00,0x00,0x00,0x80,0xf1,0x30,0x00,0x00,0x00,0xc0,0x19,0x00,
 0x80,0xff,0x07,0x7e,0x80,0xc1,0x0c,0x0c,0x44,0x00,0x00,0xe0,0x01,0x7e,0x03,
 0x00,0x00,0x00,0x0c,0xc8,0x00,0x00,0x00,0x80,0xf1,0x30,0x00,0x00,0x00,0xc0,
 0x19,0x00,0x00,0x00,0x00,0x3e,0xc0,0x60,0x06,0x08,0x4c,0x00,0x00,0x80,0x1f,
 0xf6,0x01,0x00,0x00,0x00,0x18,0x8c,0x00,0x00,0x00,0x80,0xf1,0x30,0x00,0x00,
 0x00,0x80,0x11,0x00,0x00,0x00,0x00,0x1c,0x60,0x20,0x02,0x0c,0x48,0x00,0x00,
 0x80,0xf8,0xff,0x00,0x00,0x00,0x00,0x30,0xcc,0x00,0x00,0x00,0x80,0xf1,0x30,
 0x00,0x00,0x00,0xc0,0x11,0x00,0x00,0x00,0x00,0x04,0x70,0x18,0x03,0x0c,0x48,
 0x00,0x00,0xc0,0x60,0x1f,0x00,0x00,0x00,0x00,0x60,0x88,0x00,0x00,0x00,0x80,
 0xf1,0x30,0x00,0x00,0x00,0x80,0x19,0x00,0x00,0x00,0x00,0x0c,0xdc,0x08,0x01,
 0x08,0xc8,0x00,0x00,0xc0,0x60,0x01,0x00,0x00,0x00,0x00,0xc0,0xcc,0x00,0x00,
 0x00,0x80,0xf1,0x30,0x00,0x00,0x00,0x80,0x11,0x00,0x00,0x00,0x00,0x0c,0x86,
 0x87,0x01,0x08,0x48,0x00,0x00,0x40,0x20,0x01,0x00,0x00,0x00,0x00,0x80,0x8b,
 0x00,0x00,0x00,0x80,0xf1,0x30,0x00,0x00,0x00,0x80,0x11,0x00,0x00,0x00,0x00,
 0xf0,0xe3,0xc3,0x00,0xc8,0x4e,0x00,0x00,0x60,0xa0,0x01,0x00,0x00,0x00,0x00,
 0x00,0xce,0x00,0x00,0x00,0x80,0xf1,0x30,0x00,0x00,0x00,0x80,0x13,0x00,0x00,
 0x00,0x00,0x00,0x38,0x60,0x00,0xf8,0xcf,0x17,0x00,0x60,0xb0,0x01,0x00,0x00,
 0x00,0x00,0x00,0x7e,0x00,0x00,0x00,0x80,0xf1,0x30,0x00,0x00,0x00,0xc0,0x13,
 0xc0,0x82,0xec,0xff,0x01,0x18,0x38,0x00,0x0c,0xcc,0xff,0x07,0x20,0xb0,0x00,
 0x00,0x00,0x00,0x00,0x00,0x08,0x00,0x00,0x00,0x80,0xf1,0x30,0x00,0x00,0xd0,
 0xff,0x3f,0xc0,0x79,0x01,0x00,0x01,0x70,0x08,0x00,0x0c,0x44,0x00,0x3e,0x30,
 0x90,0x00,0x00,0x00,0x00,0x00,0x00,0x00,0x00,0x00,0x00,0x80,0xf1,0x30,0x00,
 0xf4,0xff,0xc7,0x3f,0x60,0x00,0x00,0x00,0x03,0xb0,0x08,0x00,0x04,0x66,0x00,
 0x70,0x10,0xd8,0x00,0x00,0x00,0x00,0x00,0x00,0x00,0x00,0x00,0x00,0x80,0xf1,
 0x70,0xff,0x3f,0x00,0x02,0x0f,0xe0,0xf8,0xff,0x25,0x02,0xe0,0x19,0x00,0x0c,
 0x22,0x00,0xc0,0x19,0x48,0x00,0x00,0x00,0x00,0x00,0x00,0x00,0x00,0x00,0x00,
 0x80,0xf1,0xf0,0x1b,0x00,0x00,0x04,0x00,0xa0,0xac,0xac,0x3f,0x02,0x00,0x1f,
 0x00,0xfc,0x31,0x00,0x00,0x0f,0x6c,0x00,0x00,0x00,0x00,0x00,0x00,0x00,0x00,
 0x00,0x00,0x80,0xf1,0x30,0x00,0x00,0x00,0x0c,0x00,0xb0,0x08,0x88,0x60,0x06,
 0x00,0x30,0x00,0x66,0x10,0x00,0x00,0x06,0x2c,0x00,0x00,0x00,0x00,0x00,0x00,
 0x00,0x00,0x00,0x00,0x80,0xf1,0x30,0x00,0x00,0x00,0x30,0x00,0xa0,0x88,0xfb,
 0x7f,0x04,0x00,0x60,0x00,0x06,0x0c,0x00,0x00,0x04,0x36,0x00,0x00,0x00,0x00,
 0x00,0x00,0x00,0x00,0x00,0x00,0x80,0xf1,0x30,0x00,0x00,0x00,0x34,0x00,0xa0,
 0xf9,0x1f,0x43,0x04,0x00,0xc0,0x00,0x06,0x06,0x00,0x00,0x0c,0x1a,0x00,0x00,
 0x00,0x00,0x00,0x00,0x00,0x00,0x00,0x00,0x80,0xf1,0x30,0xc0,0xfe,0xff,0x3f,
 0x00,0x20,0x31,0x11,0xc2,0x04,0x00,0x80,0x00,0xff,0x07,0x00,0x00,0x08,0x1b,
 0x00,0x00,0x00,0x00,0x00,0x00,0x00,0x00,0x00,0x00,0x80,0xf1,0xf0,0xff,0x4b,
 0x02,0x20,0x00,0x60,0x31,0x13,0x86,0x0c,0x00,0x00,0x01,0xff,0x00,0x00,0x00,
 0x18,0x0f,0x00,0x00,0x00,0x00,0x00,0x00,0x00,0x00,0x00,0x00,0x80,0xf1,0x70,
 0x01,0x00,0x00,0x20,0x00,0x40,0xf3,0xff,0xbf,0x09,0x00,0x00,0x83,0x1f,0x00,
 0x00,0x00,0x90,0x0d,0x00,0x00,0x00,0x00,0x00,0x00,0x00,0x00,0x00,0x00,0x80,
 0xf1,0x30,0x00,0x00,0x00,0x60,0x00,0x40,0x23,0x22,0x8c,0x09,0x00,0x00,0xc6,
 0x07,0x00,0x00,0x00,0xf0,0x07,0x00,0x00,0x00,0x00,0x00,0x00,0x00,0x00,0x00,
 0x00,0x80,0xf1,0x30,0x00,0x00,0x00,0x20,0x00,0xc0,0x62,0x22,0x08,0x09,0x00,
 0x00,0xe4,0x03,0x00,0x00,0x00,0xe0,0x03,0x00,0x00,0x00,0x00,0x00,0x00,0x00,
 0x00,0x00,0x00,0x80,0xf1,0x30,0x00,0x00,0x00,0x60,0x00,0xc0,0xe2,0xff,0x7f,
 0x1b,0x00,0x00,0xfc,0x01,0x00,0x00,0x00,0xe0,0x03,0x00,0x00,0x00,0x00,0x00,
 0x00,0x00,0x00,0x00,0x00,0x80,0xf1,0x30,0x00,0x00,0x00,0x60,0x00,0x80,0x42,
 0x66,0x10,0x13,0x00,0x00,0x78,0x00,0x00,0x00,0x00,0xc0,0x01,0x00,0x00,0x00,
 0x00,0x00,0x00,0x00,0x00,0x00,0x00,0x80,0xf1,0x30,0x00,0x00,0x00,0x60,0x00,
 0x80,0xc6,0x44,0x10,0x12,0x00,0x00,0x30,0x00,0x00,0x00,0x00,0xc0,0x00,0x00,
 0x00,0x00,0x00,0x00,0x00,0x00,0x00,0x00,0x00,0x80,0xf1,0x20,0x00,0x00,0x00,
 0x60,0x00,0x80,0xc5,0xee,0xfd,0x16,0x00,0x00,0x30,0x00,0x00,0x00,0x00,0xc0,
 0x00,0x00,0x00,0x00,0x00,0x00,0x00,0x00,0x00,0x00,0x00,0x80,0xf1,0x70,0x00,
 0x00,0x00,0x40,0x00,0x80,0x85,0xcf,0x32,0x34,0x00,0x00,0x60,0x00,0x00,0x00,
 0x00,0xc0,0x00,0x00,0x00,0x00,0x00,0x00,0x00,0x00,0x00,0x00,0x00,0x80,0xf1,
 0x30,0x00,0x00,0x00,0x40,0x00,0x00,0x85,0x88,0x21,0x24,0x00,0x00,0x40,0x00,
 0x00,0x00,0x00,0xc0,0x00,0x00,0x00,0x00,0x00,0x00,0x00,0x00,0x00,0x00,0x00,
 0x80,0xf3,0x60,0x00,0x00,0x00,0x60,0x00,0x00,0x8d,0x19,0x21,0x2c,0x00,0x00,
 0x80,0x00,0x00,0x00,0x00,0x80,0x00,0x00,0x00,0x00,0x00,0x00,0x00,0x00,0x00,
 0xe8,0xff,0xff,0xf3,0x60,0x00,0x00,0x00,0x40,0x00,0x00,0x89,0xff,0x7f,0x6c,
 0x00,0x00,0x80,0x01,0x00,0x00,0x00,0xc0,0x00,0x64,0xdb,0xff,0xff,0xff,0xff,
 0xff,0xff,0xff,0xff,0xff,0xf3,0x30,0xec,0xff,0xff,0xff,0x25,0x09,0x8f,0xff,
 0x04,0x60,0x00,0x00,0xa2,0x93,0xb6,0xff,0xff,0xff,0xff,0xff,0xff,0xff,0xff,
 0xff,0xff,0xff,0xff,0xff,0x6d,0x1b,0xf0,0xe0,0xff,0xff,0xff,0xff,0xff,0xff,
 0xff,0xff,0xff,0xff,0xff,0xff,0xff,0xff,0xff,0xff,0xff,0xff,0xff,0xff,0x6f,
 0x93,0x44,0x92,0x24,0x49,0x49,0x02,0x00,0x00,0xf0,0xc0,0x25,0x00,0x00,0x10,
 0xff,0xff,0xff,0xff,0xff,0xff,0xff,0xff,0xff,0xff,0xdf,0x25,0x11,0x00,0x00,
 0x00,0x00,0x00,0x00,0x00,0x00,0x00,0x00,0x00,0x00,0x00,0xf0,0x00,0x00,0x00,
 0x00,0x00,0x00,0x00,0x00,0x00,0x00,0x00,0x00,0x00,0x00,0x00,0x00,0x00,0x00,
 0x00,0x00,0x00,0x00,0x00,0x00,0x00,0x00,0x00,0x00,0x00,0x00,0x00,0xf0,0x00,
 0x00,0x00,0x00,0x00,0x00,0x00,0x00,0x00,0x00,0x00,0x00,0x00,0x00,0x00,0x00,
 0x00,0x00,0x00,0x00,0x00,0x00,0x00,0x00,0x00,0x00,0x00,0x00,0x00,0x00,0x00,
 0xf0,0x00,0x00,0x00,0x00,0x00,0x00,0x00,0x00,0x00,0x00,0x00,0x00,0x00,0x00,
 0x00,0x00,0x00,0x00,0x00,0x00,0x00,0x00,0x00,0x00,0x00,0x00,0x00,0x00,0x00,
 0x00,0x00,0xf0};
